<svg width="150" height="150" viewBox="0 0 150 150" fill="none" xmlns="http://www.w3.org/2000/svg">
<path id="Blob 15" d="M118.332 23.1058C96.4237 24.2073 90.4136 5.4576 71.9559 1.0679C52.2993 -3.60908 43.4275 8.02706 41.3267 17.541C39.7074 24.875 36.3037 28.0584 27.3329 30.0976C20.9389 31.2427 15.2733 34.4861 16.7573 43.3827C18.2413 52.2794 15.2333 57.5915 10.7556 60.774C6.27786 63.957 2.10028 68.4757 0.630982 74.3625C-1.85767 84.3272 3.20143 94.7646 12.5256 99.3921C23.0033 104.482 28.6306 110.053 27.8946 121.609C27.7107 124.497 28.9454 139.862 43.9261 135.217C47.7097 134.045 63.3617 126.134 72.8601 140.816C75.2251 144.472 81.0815 148.069 86.4329 149.344C100.784 152.757 115.456 142.43 116.913 128.211C118.494 117.69 120.454 112.757 132.106 116.432C143.635 120.068 150.534 104.404 144.084 96.3688C135.13 87.3124 145.814 71.0251 149.206 57.4347C153.844 38.8584 137.455 21.0827 118.332 23.1058Z" fill="#33E616"/>
</svg>
