<svg width="25" height="25" viewBox="0 0 25 25" fill="none" xmlns="http://www.w3.org/2000/svg">
<g id="mdi:cart">
<path id="Vector" d="M17.7083 18.75C16.552 18.75 15.625 19.6771 15.625 20.8333C15.625 21.3859 15.8445 21.9158 16.2352 22.3065C16.6259 22.6972 17.1558 22.9167 17.7083 22.9167C18.2608 22.9167 18.7907 22.6972 19.1814 22.3065C19.5721 21.9158 19.7916 21.3859 19.7916 20.8333C19.7916 20.2808 19.5721 19.7509 19.1814 19.3602C18.7907 18.9695 18.2608 18.75 17.7083 18.75ZM1.04163 2.08334V4.16668H3.12496L6.87496 12.0729L5.45829 14.625C5.30204 14.9167 5.20829 15.2604 5.20829 15.625C5.20829 16.1775 5.42779 16.7074 5.81849 17.0982C6.20919 17.4889 6.73909 17.7083 7.29163 17.7083H19.7916V15.625H7.72913C7.66006 15.625 7.59382 15.5976 7.54498 15.5487C7.49615 15.4999 7.46871 15.4337 7.46871 15.3646C7.46871 15.3125 7.47913 15.2708 7.49996 15.2396L8.43746 13.5417H16.1979C16.9791 13.5417 17.6666 13.1042 18.0208 12.4688L21.75 5.72918C21.8229 5.56251 21.875 5.38543 21.875 5.20834C21.875 4.93208 21.7652 4.66712 21.5699 4.47177C21.3745 4.27642 21.1096 4.16668 20.8333 4.16668H5.42704L4.44788 2.08334M7.29163 18.75C6.13538 18.75 5.20829 19.6771 5.20829 20.8333C5.20829 21.3859 5.42779 21.9158 5.81849 22.3065C6.20919 22.6972 6.73909 22.9167 7.29163 22.9167C7.84416 22.9167 8.37406 22.6972 8.76477 22.3065C9.15547 21.9158 9.37496 21.3859 9.37496 20.8333C9.37496 20.2808 9.15547 19.7509 8.76477 19.3602C8.37406 18.9695 7.84416 18.75 7.29163 18.75Z" fill="#FFFCFA"/>
</g>
</svg>
