<svg width="15" height="15" viewBox="0 0 15 15" fill="none" xmlns="http://www.w3.org/2000/svg">
<g id="basil:check-outline">
<path id="Vector" fill-rule="evenodd" clip-rule="evenodd" d="M11.2687 4.98126C11.3565 5.06916 11.4058 5.1883 11.4058 5.31251C11.4058 5.43673 11.3565 5.55587 11.2687 5.64376L6.89372 10.0188C6.80583 10.1065 6.68669 10.1559 6.56247 10.1559C6.43825 10.1559 6.31911 10.1065 6.23122 10.0188L3.73122 7.51876C3.68517 7.47585 3.64823 7.4241 3.62261 7.3666C3.59699 7.3091 3.58321 7.24703 3.5821 7.18409C3.58099 7.12115 3.59257 7.05863 3.61615 7.00027C3.63972 6.9419 3.67481 6.88888 3.71932 6.84437C3.76384 6.79985 3.81686 6.76476 3.87523 6.74119C3.93359 6.71761 3.99611 6.70603 4.05905 6.70714C4.12199 6.70826 4.18406 6.72203 4.24156 6.74765C4.29906 6.77327 4.35081 6.81021 4.39372 6.85627L6.56247 9.02501L10.6062 4.98126C10.6941 4.89348 10.8133 4.84418 10.9375 4.84418C11.0617 4.84418 11.1808 4.89348 11.2687 4.98126Z" fill="white"/>
</g>
</svg>
