<svg width="19" height="19" viewBox="0 0 19 19" fill="none" xmlns="http://www.w3.org/2000/svg">
<g id="Vector">
<path id="Vector_2" d="M2.03131 15.6231H10.4688C10.8251 15.6232 11.1681 15.7586 11.4284 16.0018C11.6888 16.2451 11.8471 16.5781 11.8714 16.9335C11.8956 17.289 11.7841 17.6404 11.5592 17.9168C11.3344 18.1932 11.013 18.3739 10.6601 18.4225L10.4688 18.4356H2.03131C1.67502 18.4355 1.33205 18.3002 1.0717 18.0569C0.811355 17.8137 0.653046 17.4807 0.628761 17.1252C0.604476 16.7698 0.716026 16.4183 0.94087 16.1419C1.16572 15.8656 1.48709 15.6848 1.84006 15.6363L2.03131 15.6231ZM4.78756 4.78562C5.0259 4.54775 5.34168 4.40329 5.67751 4.37852C6.01333 4.35374 6.34689 4.4503 6.61756 4.65062L6.77506 4.7875L13.3376 11.35C13.5869 11.6013 13.7322 11.9373 13.7447 12.291C13.7571 12.6447 13.6358 12.9901 13.4048 13.2583C13.1738 13.5264 12.8501 13.6976 12.4985 13.7377C12.1468 13.7778 11.793 13.6837 11.5076 13.4744L11.3501 13.3375L4.78756 6.775C4.52421 6.51133 4.3763 6.15391 4.3763 5.78125C4.3763 5.40859 4.52421 5.0493 4.78756 4.78562ZM17.0313 0.625C17.3711 0.625014 17.6994 0.74808 17.9556 0.971438C18.2117 1.1948 18.3782 1.50334 18.4244 1.84L18.4376 2.03125V10.4688C18.4375 10.825 18.3021 11.168 18.0589 11.4284C17.8156 11.6887 17.4826 11.847 17.1272 11.8713C16.7717 11.8956 16.4203 11.784 16.1439 11.5592C15.8675 11.3343 15.6867 11.013 15.6382 10.66L15.6251 10.4688V2.03125C15.6251 1.65829 15.7732 1.3006 16.0369 1.03688C16.3007 0.773158 16.6583 0.625 17.0313 0.625Z" fill="#FF5400"/>
</g>
</svg>
