<svg width="19" height="19" viewBox="0 0 19 19" fill="none" xmlns="http://www.w3.org/2000/svg">
<g id="Vector">
<path id="Vector_2" d="M16.9687 15.6231H8.53119C8.1749 15.6232 7.83193 15.7586 7.57158 16.0018C7.31124 16.2451 7.15293 16.5781 7.12864 16.9335C7.10436 17.289 7.21591 17.6404 7.44075 17.9168C7.6656 18.1932 7.98697 18.3739 8.33994 18.4225L8.53119 18.4356H16.9687C17.325 18.4355 17.668 18.3002 17.9283 18.0569C18.1886 17.8137 18.347 17.4807 18.3712 17.1252C18.3955 16.7698 18.284 16.4183 18.0591 16.1419C17.8343 15.8656 17.5129 15.6848 17.1599 15.6363L16.9687 15.6231ZM14.2124 4.78562C13.9741 4.54775 13.6583 4.40329 13.3225 4.37852C12.9867 4.35374 12.6531 4.4503 12.3824 4.65062L12.2249 4.7875L5.66244 11.35C5.41315 11.6013 5.26776 11.9373 5.25531 12.291C5.24285 12.6447 5.36424 12.9901 5.59524 13.2583C5.82625 13.5264 6.14987 13.6976 6.50154 13.7377C6.85321 13.7778 7.20705 13.6837 7.49244 13.4744L7.64994 13.3375L14.2124 6.775C14.4758 6.51133 14.6237 6.15391 14.6237 5.78125C14.6237 5.40859 14.4758 5.0493 14.2124 4.78562ZM1.96869 0.625C1.62887 0.625014 1.30055 0.74808 1.04445 0.971438C0.788343 1.1948 0.621782 1.50334 0.575565 1.84L0.562441 2.03125V10.4688C0.56255 10.825 0.697901 11.168 0.941139 11.4284C1.18438 11.6887 1.51738 11.847 1.87284 11.8713C2.22831 11.8956 2.57974 11.784 2.85613 11.5592C3.13251 11.3343 3.31325 11.013 3.36182 10.66L3.37494 10.4688V2.03125C3.37494 1.65829 3.22678 1.3006 2.96306 1.03688C2.69934 0.773158 2.34165 0.625 1.96869 0.625Z" fill="#FF5400"/>
</g>
</svg>
