<svg width="25" height="25" viewBox="0 0 25 25" fill="none" xmlns="http://www.w3.org/2000/svg">
<g id="iconos negro">
<path id="Vector" d="M15.3542 9.37499L14.9937 18.75M10.0062 18.75L9.64583 9.37499M20.0292 6.03124C20.3854 6.08541 20.7396 6.1427 21.0937 6.20416M20.0292 6.03124L18.9167 20.4927C18.8713 21.0815 18.6053 21.6314 18.1719 22.0325C17.7385 22.4337 17.1697 22.6564 16.5792 22.6562H8.42083C7.83031 22.6564 7.26148 22.4337 6.8281 22.0325C6.39472 21.6314 6.12874 21.0815 6.08333 20.4927L4.97083 6.03124M20.0292 6.03124C18.8269 5.84949 17.6185 5.71155 16.4062 5.6177M4.97083 6.03124C4.61458 6.08437 4.26042 6.14166 3.90625 6.20312M4.97083 6.03124C6.17306 5.84949 7.38149 5.71155 8.59375 5.6177M16.4062 5.6177V4.66354C16.4062 3.43437 15.4583 2.40937 14.2292 2.37083C13.0767 2.33399 11.9233 2.33399 10.7708 2.37083C9.54167 2.40937 8.59375 3.43541 8.59375 4.66354V5.6177M16.4062 5.6177C13.806 5.41674 11.194 5.41674 8.59375 5.6177" stroke="black" stroke-width="1.5" stroke-linecap="round" stroke-linejoin="round"/>
</g>
</svg>
