<svg width="25" height="25" viewBox="0 0 25 25" fill="none" xmlns="http://www.w3.org/2000/svg">
<g id="register">
<path id="Vector" d="M15.625 14.5833C12.8437 14.5833 7.29163 15.9687 7.29163 18.75V20.8333H23.9583V18.75C23.9583 15.9687 18.4062 14.5833 15.625 14.5833ZM6.24996 10.4167V7.29166H4.16663V10.4167H1.04163V12.5H4.16663V15.625H6.24996V12.5H9.37496V10.4167M15.625 12.5C16.73 12.5 17.7898 12.061 18.5712 11.2796C19.3526 10.4982 19.7916 9.43839 19.7916 8.33332C19.7916 7.22826 19.3526 6.16845 18.5712 5.38704C17.7898 4.60564 16.73 4.16666 15.625 4.16666C14.5199 4.16666 13.4601 4.60564 12.6787 5.38704C11.8973 6.16845 11.4583 7.22826 11.4583 8.33332C11.4583 9.43839 11.8973 10.4982 12.6787 11.2796C13.4601 12.061 14.5199 12.5 15.625 12.5Z" fill="#FFFCFA"/>
</g>
</svg>
