<svg width="18" height="18" viewBox="0 0 18 18" fill="none" xmlns="http://www.w3.org/2000/svg">
<g id="Group">
<path id="Vector" d="M13.5834 3.16666C13.9149 3.16666 14.2328 3.29835 14.4673 3.53277C14.7017 3.76719 14.8334 4.08514 14.8334 4.41666C14.8334 4.74818 14.7017 5.06612 14.4673 5.30054C14.2328 5.53496 13.9149 5.66666 13.5834 5.66666C13.2519 5.66666 12.9339 5.53496 12.6995 5.30054C12.4651 5.06612 12.3334 4.74818 12.3334 4.41666C12.3334 4.08514 12.4651 3.76719 12.6995 3.53277C12.9339 3.29835 13.2519 3.16666 13.5834 3.16666Z" stroke="#FF5400" stroke-width="1.25" stroke-linecap="round" stroke-linejoin="round"/>
<path id="Vector_2" d="M1.31165 8.28666C0.47582 9.21999 0.458321 10.6283 1.22499 11.62C2.71416 13.5531 4.44683 15.2858 6.37999 16.775C7.37165 17.5417 8.77999 17.5242 9.71332 16.6883C12.2363 14.4315 14.607 12.0101 16.81 9.43999C17.0324 9.18437 17.1693 8.86562 17.2017 8.52833C17.3383 7.03166 17.6208 2.71999 16.45 1.54999C15.2792 0.379993 10.9683 0.66166 9.47165 0.79916C9.13436 0.831475 8.81561 0.968416 8.55999 1.19083C5.98988 3.3935 3.56847 5.76397 1.31165 8.28666Z" stroke="#FF5400" stroke-width="1.25" stroke-linecap="round" stroke-linejoin="round"/>
<path id="Vector_3" d="M10.49 9.30582C10.5083 8.97082 10.6017 8.35999 10.0933 7.89499M10.0933 7.89499C9.89936 7.72646 9.6735 7.59865 9.42915 7.51915C8.38165 7.14999 7.09582 8.38499 8.00582 9.51582C8.49499 10.1242 8.87249 10.3108 8.83582 11.0008C8.81082 11.4858 8.33415 11.9933 7.70582 12.1867C7.15999 12.355 6.55749 12.1325 6.17665 11.7067C5.71082 11.1867 5.75832 10.6967 5.75415 10.4833M10.0933 7.89499L10.6667 7.32166M6.21665 11.7717L5.67249 12.3158" stroke="#FF5400" stroke-width="1.25" stroke-linecap="round" stroke-linejoin="round"/>
</g>
</svg>
