<svg width="15" height="15" viewBox="0 0 15 15" fill="none" xmlns="http://www.w3.org/2000/svg">
<g id="material-symbols-light:search" clip-path="url(#clip0_2050_1909)">
<path id="Vector" d="M15.3536 15L9.62022 9.26732C9.16242 9.65731 8.63596 9.95911 8.04084 10.1727C7.44571 10.3863 6.84753 10.4931 6.24629 10.4931C4.78014 10.4931 3.53922 9.98566 2.52353 8.97071C1.50784 7.95575 1 6.71529 1 5.24932C1 3.78334 1.50723 2.54227 2.5217 1.52609C3.53617 0.50992 4.77648 0.00122282 6.24263 2.19537e-06C7.70878 -0.00121843 8.95031 0.506563 9.96722 1.52335C10.9841 2.54013 11.4926 3.7812 11.4926 5.24657C11.4926 5.88252 11.38 6.49802 11.1547 7.09307C10.9295 7.68813 10.6335 8.19713 10.2666 8.62008L16 14.3518L15.3536 15ZM6.24721 9.57675C7.46188 9.57675 8.48733 9.15868 9.32357 8.32255C10.1598 7.48642 10.5779 6.46079 10.5779 5.24565C10.5779 4.03052 10.1598 3.00519 9.32357 2.16967C8.48733 1.33415 7.46188 0.916084 6.24721 0.915474C5.03253 0.914863 4.00678 1.33293 3.16993 2.16967C2.33309 3.00641 1.91497 4.03174 1.91558 5.24565C1.91619 6.45957 2.33431 7.4849 3.16993 8.32164C4.00555 9.15838 5.03101 9.57644 6.24629 9.57583" fill="#908C8B"/>
</g>
<defs>
<clipPath id="clip0_2050_1909">
<rect width="15" height="15" fill="white"/>
</clipPath>
</defs>
</svg>
