<svg width="20" height="20" viewBox="0 0 20 20" fill="none" xmlns="http://www.w3.org/2000/svg">
<g id="mdi:teddy-bear">
<path id="Vector" d="M13.125 15.9416C12.4333 15.9416 11.875 15.2416 11.875 14.375C11.875 13.5166 12.4333 12.8166 13.125 12.8166C13.8167 12.8166 14.375 13.5166 14.375 14.375C14.375 15.2416 13.8167 15.9416 13.125 15.9416ZM10 9.37497C8.96668 9.37497 8.12501 8.67497 8.12501 7.81664C8.12501 6.94997 8.96668 6.24997 10 6.24997C11.0333 6.24997 11.875 6.94997 11.875 7.81664C11.875 8.67497 11.0333 9.37497 10 9.37497ZM6.87501 15.9416C6.18334 15.9416 5.62501 15.2416 5.62501 14.375C5.62501 13.5166 6.18334 12.8166 6.87501 12.8166C7.56668 12.8166 8.12501 13.5166 8.12501 14.375C8.12501 15.2416 7.56668 15.9416 6.87501 15.9416ZM10 6.87497C10.3417 6.87497 10.625 7.15831 10.625 7.49997C10.625 7.84164 10.3417 8.12497 10 8.12497C9.65834 8.12497 9.37501 7.84164 9.37501 7.49997C9.37501 7.15831 9.65834 6.87497 10 6.87497ZM15.625 9.99997C15.3583 9.99997 15.1 10.0583 14.8667 10.1666C14.4667 9.65831 13.925 9.22497 13.275 8.89164C13.75 8.22497 14.0333 7.41664 14.0333 6.54164V6.49164C14.9417 6.29997 15.625 5.49164 15.625 4.51664C15.625 3.40831 14.7167 2.49997 13.6083 2.49997C13.0333 2.49997 12.5 2.74164 12.15 3.12497C11.5073 2.7165 10.7615 2.49957 10 2.49957C9.23849 2.49957 8.49272 2.7165 7.85001 3.12497C7.50001 2.74164 6.96668 2.49997 6.39168 2.49997C5.28334 2.49997 4.37501 3.40831 4.37501 4.51664C4.37501 5.48331 5.05834 6.29164 5.95834 6.49164V6.54164C5.95834 7.41664 6.25001 8.23331 6.71668 8.89164C6.07501 9.22497 5.53334 9.65831 5.13334 10.1666C4.84856 10.0384 4.53615 9.98358 4.22471 10.0073C3.91328 10.0311 3.61278 10.1326 3.35075 10.3026C3.08872 10.4726 2.87353 10.7056 2.7249 10.9803C2.57627 11.255 2.49894 11.5626 2.50001 11.875C2.50001 12.9166 3.33334 13.75 4.37501 13.75H4.42501C4.39168 13.95 4.37501 14.1666 4.37501 14.375C4.37501 16.1 5.49168 17.5 6.87501 17.5C7.71668 17.5 8.45834 16.975 8.91668 16.175C9.26668 16.225 9.62501 16.25 10 16.25C10.375 16.25 10.7333 16.225 11.0833 16.175C11.5417 16.975 12.2833 17.5 13.125 17.5C14.5083 17.5 15.625 16.1 15.625 14.375C15.625 14.1666 15.6083 13.95 15.575 13.75H15.625C16.6667 13.75 17.5 12.9166 17.5 11.875C17.5 10.8333 16.6667 9.99997 15.625 9.99997Z" fill="#FF5400"/>
</g>
</svg>
