<svg width="25" height="25" viewBox="0 0 25 25" fill="none" xmlns="http://www.w3.org/2000/svg">
<g id="user">
<path id="Vector" d="M12.5 4.16666C13.605 4.16666 14.6648 4.60564 15.4462 5.38704C16.2276 6.16845 16.6666 7.22825 16.6666 8.33332C16.6666 9.43839 16.2276 10.4982 15.4462 11.2796C14.6648 12.061 13.605 12.5 12.5 12.5C11.3949 12.5 10.3351 12.061 9.55368 11.2796C8.77228 10.4982 8.33329 9.43839 8.33329 8.33332C8.33329 7.22825 8.77228 6.16845 9.55368 5.38704C10.3351 4.60564 11.3949 4.16666 12.5 4.16666ZM12.5 14.5833C17.1041 14.5833 20.8333 16.4479 20.8333 18.75V20.8333H4.16663V18.75C4.16663 16.4479 7.89579 14.5833 12.5 14.5833Z" fill="white"/>
</g>
</svg>
